<svg width="102" height="102" viewBox="0 0 102 102" fill="none" xmlns="http://www.w3.org/2000/svg">
<g opacity="0.7" filter="url(#filter0_d_15_44)">
<ellipse cx="51.1665" cy="45.8637" rx="34.1835" ry="34.1835" transform="matrix(0.952086 -0.305856 0.305806 0.952086 -11.5738 17.8471)" fill="#470137"/>
</g>
<path d="M89.5456 35.5458C95.3194 53.5203 85.4288 72.772 67.4544 78.5458C49.4799 84.3196 30.2282 74.429 24.4544 56.4546C18.6806 38.4801 28.5712 19.2284 46.5456 13.4546C64.5201 7.68078 83.7718 17.5714 89.5456 35.5458Z" fill="#470137"/>
<path d="M54.242 35.6068L51.9961 46.8524L61.5012 54.4708C61.5655 54.5318 61.6111 54.5996 61.6195 54.6809C61.6279 54.7621 61.5331 54.7332 61.4281 54.7924L57.1626 56.3385C56.8646 56.4465 56.6529 56.5022 56.455 56.3632C55.7803 55.7226 55.0937 55.1075 54.419 54.467C53.751 53.8451 53.039 53.218 52.3017 52.5791C51.5643 51.9402 50.827 51.3013 50.0828 50.6438L50.0456 50.6573C49.9448 51.6 49.8067 52.5563 49.6686 53.5125C49.5305 54.4687 49.3924 55.4249 49.2662 56.3558C49.1213 57.2934 48.9832 58.2496 48.8317 59.1686C48.8247 59.3819 48.6824 59.4545 48.4775 59.5288L44.3797 61.0141C44.3052 61.0412 44.2628 61.0987 44.229 61.0055C44.1834 60.9378 44.175 60.8565 44.192 60.7871L46.5415 49.1878L37.4341 41.6782C37.3512 41.6239 37.3056 41.5561 37.3293 41.5054C37.3463 41.436 37.4141 41.3904 37.4886 41.3634L41.7168 39.8307C41.8099 39.797 41.9098 39.7819 41.9911 39.7735C42.0791 39.7837 42.1552 39.8193 42.2381 39.8736C42.8823 40.5463 43.5824 41.1987 44.3012 41.8443C45.0385 42.4832 45.7505 43.1102 46.4997 43.7238C47.2304 44.344 47.9237 44.9778 48.6052 45.637L48.6424 45.6235C48.7365 44.6621 48.856 43.7126 48.9822 42.7818C49.1084 41.8509 49.2533 40.9133 49.3981 39.9757C49.5429 39.0381 49.6624 38.0887 49.7954 37.1764C49.787 37.0952 49.7972 37.0072 49.8396 36.9497C49.9006 36.8854 49.9684 36.8398 50.0683 36.8246L53.9985 35.4C54.0848 35.3477 54.1982 35.3698 54.2506 35.4562C54.276 35.468 54.2657 35.556 54.242 35.6068Z" fill="#FF61F6"/>
<path d="M69.9706 52.1386C68.599 52.6569 67.1194 52.8771 65.6621 52.752C64.2928 52.6372 63.0001 52.0942 61.9312 51.2383C60.8302 50.3519 59.9818 49.0578 59.3674 47.3628C58.8492 45.9912 58.7102 44.5032 58.9673 43.0613C59.2362 41.594 59.8961 40.2168 60.8824 39.1006C61.9229 37.9016 63.3593 36.9805 65.2033 36.3121C65.2964 36.2784 65.4268 36.2311 65.6012 36.189C65.7756 36.1468 65.9619 36.0793 66.1921 36.0169L64.0586 30.1309C64.0114 30.0005 64.0402 29.9058 64.1706 29.8585L67.9518 28.4879C68.0382 28.4355 68.1397 28.483 68.1853 28.5508C68.1921 28.5694 68.1988 28.588 68.1988 28.588L74.6264 46.3205C74.7479 46.6558 74.9016 47.0216 75.0688 47.4246C75.2478 47.8023 75.4015 48.1681 75.5349 48.478C75.5821 48.6083 75.5668 48.7404 75.4566 48.8435C74.6366 49.6044 73.7202 50.2737 72.7446 50.8381C71.8554 51.3501 70.9392 51.7875 69.9706 52.1386ZM70.4457 47.7516L67.475 39.556C67.2938 39.5795 67.1127 39.603 66.9383 39.6451C66.7266 39.7008 66.515 39.7564 66.3101 39.8307C65.5837 40.094 64.9112 40.5063 64.3808 41.0779C63.8623 41.6241 63.4909 42.2856 63.2972 43.0302C63.1035 43.7747 63.1889 44.6499 63.54 45.6185C63.7577 46.2772 64.1057 46.8886 64.5521 47.4223C64.9206 47.8577 65.3621 48.2034 65.8696 48.4409C66.3451 48.6479 66.868 48.7534 67.4063 48.7269C67.97 48.7122 68.5185 48.5977 69.0401 48.4087C69.3195 48.3074 69.5735 48.1942 69.8089 48.0878C70.0578 48.0187 70.2492 47.9072 70.4457 47.7516Z" fill="#FF61F6"/>
<defs>
<filter id="filter0_d_15_44" x="0.695774" y="0.276397" width="100.941" height="100.941" filterUnits="userSpaceOnUse" color-interpolation-filters="sRGB">
<feFlood flood-opacity="0" result="BackgroundImageFix"/>
<feColorMatrix in="SourceAlpha" type="matrix" values="0 0 0 0 0 0 0 0 0 0 0 0 0 0 0 0 0 0 127 0" result="hardAlpha"/>
<feOffset dy="4.88336"/>
<feGaussianBlur stdDeviation="8.13893"/>
<feComposite in2="hardAlpha" operator="out"/>
<feColorMatrix type="matrix" values="0 0 0 0 0.168627 0 0 0 0 0.172549 0 0 0 0 0.203922 0 0 0 0.2 0"/>
<feBlend mode="normal" in2="BackgroundImageFix" result="effect1_dropShadow_15_44"/>
<feBlend mode="normal" in="SourceGraphic" in2="effect1_dropShadow_15_44" result="shape"/>
</filter>
</defs>
</svg>
